# xmcd
#
# Track frame offsets:
#	150
#	13800
#	28662
#	60175
#	73125
#	86412
#	100587
#	117025
#	132587
#	150900
#	165937
#	181500
#	201550
#	222800
#	236137
#	252537
#	266600
#	293937
#	308575
#	323787
#
# Disc length: 4508 seconds
#
# Revision: 0
# Processed by: cddbd v1.4PL0 Copyright (c) Steve Scherf et al.
# Submitted via: dBpowerAMP V4.0
#
DISCID=0f119a14
DTITLE=The Undisputed Truth - The Undisputed Truth
DYEAR=1995
DGENRE=Soul
TTITLE0=You got the love i need
TTITLE1=Smiling faces sometimes
TTITLE2=You make your own heaven and hell right here on earth
TTITLE3=I heard it through the grapevine
TTITLE4=Girl you're alright
TTITLE5=Superstar(remember how you got when you are)
TTITLE6=Mama i gotta brand new thing(don't say no)
TTITLE7=This child needs its father
TTITLE8=Save my love for a rainy day
TTITLE9=If i die
TTITLE10=Papa was a Rollin' Stone
TTITLE11=Law of the land
TTITLE12=Big John is my name
TTITLE13=Just you'n me
TTITLE14=The girl's alright with me
TTITLE15=I'm a fool for you
TTITLE16=Earthquake shake
TTITLE17=Spaced out
TTITLE18=Higher than high
TTITLE19=Overload
EXTD=
EXTT0=
EXTT1=
EXTT2=
EXTT3=
EXTT4=
EXTT5=
EXTT6=
EXTT7=
EXTT8=
EXTT9=
EXTT10=
EXTT11=
EXTT12=
EXTT13=
EXTT14=
EXTT15=
EXTT16=
EXTT17=
EXTT18=
EXTT19=
PLAYORDER=
